<svg xmlns="http://www.w3.org/2000/svg" viewBox="0 0 139.2 52.5"><style>.st2{fill:#fff}</style><path fill="#fff200" d="M-10-4h160.1v60.4H-10z" id="Layer_3"/><g id="Layer_1"><path d="M93.1 28h4.3l-2.2-6.5zm-12.2-4.7c0-1.3-.8-2.2-2.6-2.2h-3.2v4.8h2.6c1.9 0 3.2-1 3.2-2.6z"/><path d="M-10-4v60.4h160.1V-4H-10zm29.8 37.8h-1.7V19.2h1.7v14.6zm9.1 0h-1.7V19.2h1.7v14.6zM60.3 32c1 0 2-.2 2.8-.7v-3.7h-3.7V26H65v6.2c-1.3.9-3.1 1.5-4.7 1.5-4.5 0-5.8-3.8-5.8-7.3 0-3.4 1.4-7.3 5.7-7.3 2.1 0 3.8 1.1 4.9 2.7l-1.7 1c-.7-1.1-1.9-2-3.3-2-3 0-3.6 3.5-3.6 5.6.2 2.3.8 5.6 3.8 5.6zm21.6 1.8L78 27.5h-2.8v6h-2V19.4h5.2c2.6 0 4.6 1.1 4.6 3.8 0 1.7-1.3 3.4-3.1 3.9l3.8 5.7-1.8 1zm17.5 0L98 29.7h-5.4l-1.4 4.2-1.9-.6L94 19.4h2.5l4.8 13.8-1.9.6zm17.3-.3l-.4-11.4h-.1l-3.4 7.4-3.4-7.4h-.1l-.3 11.4h-2.1l.6-14.1h2.6l2.8 6.1 2.8-6.1h2.6l.6 14.1h-2.2z"/><path id="패스_24_2_" class="st2" d="M48.2 32.9l-1.6 1L36.9 20l1.7-1 9.6 13.9z"/><path id="패스_25_2_" class="st2" d="M28.8 32.7l-1.5 1.1-9.1-13.7 1.6-1 9 13.6z"/><path id="패스_27_2_" class="st2" d="M38.1 33.8l-1.5-1.2 9.6-13.5 1.5 1.2-9.6 13.5z"/></g><path fill="none" stroke="#fff" stroke-miterlimit="10" d="M0 0h139.2v52.5H0z" id="Layer_4"/></svg>