<svg xmlns="http://www.w3.org/2000/svg" viewBox="0 0 198.4 99.2"><path d="M8.8 31.2H0v-3.5h21.4v3.5h-8.6v35.2h-4V31.2zm31.3 27l-3 9-4-1.4 10-29.6h5.2l10 29.6-4 1.4-2.9-9H40.1zm5.6-17.5l-4.5 14h9l-4.5-14zm24.7-4.5h4.1v12.5H87V36.2h4.1v30.2H87V52.2H74.5v14.2h-4.1V36.2zM127 51.3c0 2.4-.2 15.6-11.3 15.6-5.1 0-11.3-3.5-11.3-15.6s6-15.7 11.3-15.7c5.1.1 11.3 3.5 11.3 15.7zm-18.2 0c0 4.4.9 11.9 7 11.9 6.2 0 7-7.5 7-11.9 0-4.5-.9-12-7-12-6.2 0-7 7.6-7 12zm34.9-9.4h-.1l-.8 24.5h-4.3l1.3-30.2h5.4l5.7 13.1 5.7-13.1h5.4l1.3 30.2H159l-1-24.5h-.1l-7.1 15.9-7.1-15.9zm36.5 16.3l-3 9-4-1.4 10-29.6h5.2l10 29.6-4 1.4-2.9-9h-11.3zm5.6-17.5l-4.5 14h9l-4.5-14z" fill="#010202"/></svg>