<svg version="1.1" id="Layer_1" xmlns="http://www.w3.org/2000/svg" x="0" y="0" viewBox="0 0 139.2 52.5" xml:space="preserve"><style>.st0{enable-background:new}.st1{fill:#9e9e9e}</style><path d="M0 0h139.1v52.5H0z" id="Layer_14"/><g class="st0"><path class="st1" d="M31.7 20.9v7.5c0 1.6.5 2.4 2.1 2.4 1.9 0 2.3-.8 2.3-2.4v-7.5h1.5V29c0 1.5-1.1 3-3.8 3-2.6 0-3.7-1.5-3.7-3.1v-8.1h1.6z"/><path d="M44.5 32.1l-1.4-.7 3.7-5.4-3.4-4.7 1.4-.7 2.8 4.2 2.8-4.2 1.4.7-3.3 4.7 3.7 5.4-1.4.7-3.2-4.9-3.1 4.9z" fill="#fff"/><text transform="translate(30.148 32.044)" font-size="12" font-family="MyriadPro-Regular">N</text></g><g class="st0"><path class="st1" d="M65.5 30.8c-1 .7-2.5 1.2-3.7 1.2-3.5 0-4.5-3-4.5-5.7s1.1-5.7 4.5-5.7c1.6 0 3 .9 3.8 2.1l-1.3.8c-.6-.9-1.4-1.6-2.6-1.6-2.4 0-2.8 2.7-2.8 4.4 0 1.7.4 4.3 2.8 4.3.8 0 1.6-.2 2.2-.6v-2.9H61V26h4.4v4.8zm6.3-9.9h4.1c2 0 3.6.9 3.6 3 0 1.4-1 2.7-2.4 3.1l2.9 4.5-1.3.7-3.1-5h-2.2v4.7h-1.5v-11zm3.5 5c1.5 0 2.5-.8 2.5-2 0-1-.6-1.7-2-1.7h-2.5V26h2zm11.6 3l-1.1 3.3-1.5-.5 3.8-10.8h2l3.8 10.8-1.5.5-1.1-3.3h-4.4zm2.1-6.4l-1.7 5.1h3.4L89 22.5zm11.1.5l-.3 8.9h-1.6l.5-11h2l2.2 4.8 2.2-4.8h2l.5 11H106l-.3-8.9-2.7 5.8-2.9-5.8z"/></g></svg>